<svg width="16" height="16" viewBox="0 0 16 16" fill="none" xmlns="http://www.w3.org/2000/svg">
<g clip-path="url(#clip0_16166_39806)">
<path d="M1.71705 10.1311C1.71883 10.1329 1.72065 10.1347 1.72247 10.1365L7.3161 15.7375C7.36054 15.7817 7.40965 15.8209 7.46254 15.8546L7.6236 15.9425L7.73342 15.9791H7.81397C7.93738 16.0018 8.06392 16.0018 8.18737 15.9791H8.26057H8.34843L8.47291 15.9132C8.54227 15.8755 8.60631 15.8287 8.66328 15.7741L14.2789 10.1365C14.6549 9.76345 14.6573 9.15616 14.2843 8.78012C14.2825 8.7783 14.2807 8.77651 14.2789 8.7747C13.8998 8.41303 13.3035 8.41303 12.9244 8.7747L9.57845 12.1133C9.4341 12.2548 9.2023 12.2526 9.06077 12.1082C8.99491 12.041 8.95743 11.9511 8.95613 11.857L8.95613 0.955302C8.95616 0.425578 8.52679 -0.00386238 7.99707 -0.00389671C7.46734 -0.00393105 7.03793 0.425441 7.03787 0.955165V0.955302L7.03787 11.857C7.03502 12.0592 6.86884 12.2208 6.6667 12.218C6.57266 12.2166 6.48271 12.1792 6.41555 12.1133L3.08424 8.7747C2.70422 8.40837 2.10246 8.40837 1.72244 8.7747C1.3464 9.14775 1.34396 9.75504 1.71705 10.1311Z" fill="black"/>
</g>
<defs>
<clipPath id="clip0_16166_39806">
<rect width="16" height="16" fill="white" transform="matrix(-1 0 0 -1 16 16)"/>
</clipPath>
</defs>
</svg>
