<svg width="16" height="16" viewBox="0 0 16 16" fill="none" xmlns="http://www.w3.org/2000/svg">
<g clip-path="url(#clip0_16168_41192)">
<path d="M8.0875 1.51484C8.03125 1.49297 7.96875 1.49297 7.90938 1.51484L1.9875 3.76172L8 6.12422L14.0125 3.76172L8.0875 1.51484ZM1.5 11.7398C1.5 11.843 1.56563 11.9367 1.6625 11.9742L7.25 14.093V7.43984L1.5 5.18359V11.7398ZM8.75 14.093L14.3375 11.9742C14.4344 11.9367 14.5 11.843 14.5 11.7398V5.18359L8.75 7.44297V14.0961V14.093ZM7.37813 0.114844C7.77813 -0.0382812 8.21875 -0.0382812 8.61875 0.114844L14.8687 2.48672C15.55 2.74297 16 3.39297 16 4.12109V11.7398C16 12.468 15.55 13.118 14.8719 13.3773L8.62187 15.7492C8.22188 15.9023 7.78125 15.9023 7.38125 15.7492L1.13125 13.3773C0.45 13.118 0 12.468 0 11.7398V4.12109C0 3.39297 0.45 2.74297 1.12812 2.48359L7.37813 0.111719V0.114844Z" fill="black"/>
</g>
<defs>
<clipPath id="clip0_16168_41192">
<rect width="16" height="16" fill="white"/>
</clipPath>
</defs>
</svg>
