<svg width="16" height="16" viewBox="0 0 16 16" fill="none" xmlns="http://www.w3.org/2000/svg">
<g clip-path="url(#clip0_16166_39800)">
<g clip-path="url(#clip1_16166_39800)">
<path d="M5.03125 4.9375C5.03125 3.62754 6.09629 2.5625 7.40625 2.5625H8.59375C9.90371 2.5625 10.9688 3.62754 10.9688 4.9375V5.28262C10.9688 6.00996 10.6348 6.7002 10.0596 7.14922L7.26523 9.34609L6.8125 9.70234V10.2812V12.0625H9.1875V10.8602L11.5291 9.01953C12.6758 8.11777 13.3438 6.74102 13.3438 5.28262V4.9375C13.3438 2.31387 11.2174 0.1875 8.59375 0.1875H7.40625C4.78262 0.1875 2.65625 2.31387 2.65625 4.9375V5.53125H5.03125V4.9375ZM9.48438 13.8438H6.51562V16.8125H9.48438V13.8438Z" fill="black"/>
</g>
</g>
<defs>
<clipPath id="clip0_16166_39800">
<rect width="16" height="16" fill="white"/>
</clipPath>
<clipPath id="clip1_16166_39800">
<rect width="11.875" height="19" fill="white" transform="translate(2.0625 -1)"/>
</clipPath>
</defs>
</svg>